<?xml version="1.0" standalone="no"?>
<!DOCTYPE svg PUBLIC "-//W3C//DTD SVG 20010904//EN"
 "http://www.w3.org/TR/2001/REC-SVG-20010904/DTD/svg10.dtd">
<svg version="1.0" xmlns="http://www.w3.org/2000/svg"
 width="958.000000pt" height="262.000000pt" viewBox="0 0 958.000000 262.000000"
 preserveAspectRatio="xMidYMid meet">

<g transform="translate(0.000000,262.000000) scale(0.100000,-0.100000)"
fill="#000000" stroke="none">
<path d="M4891 1956 c-205 -40 -348 -181 -381 -377 -8 -45 -10 -152 -8 -302 4
-220 6 -235 30 -300 63 -166 181 -259 370 -293 205 -38 417 16 537 136 57 57
106 150 121 229 11 58 14 299 4 325 -5 14 -37 16 -250 16 -230 0 -244 -1 -254
-19 -15 -30 -12 -113 6 -139 14 -21 22 -22 135 -22 l119 0 0 -40 c0 -117 -47
-209 -129 -254 -42 -22 -70 -29 -135 -33 -148 -9 -246 51 -282 174 -27 88 -26
454 1 537 35 110 123 166 261 166 114 0 193 -44 245 -136 l31 -54 112 0 c74 0
116 4 124 12 51 51 -65 233 -198 310 -112 65 -309 92 -459 64z"/>
<path d="M2228 1939 c-17 -9 -18 -49 -18 -610 0 -395 4 -607 10 -620 10 -17
22 -19 115 -19 81 0 107 3 119 16 14 13 16 49 16 235 l0 219 193 0 c201 0 255
8 340 49 72 35 124 86 159 159 32 64 33 72 33 182 0 110 -2 118 -33 182 -18
36 -51 82 -73 103 -54 49 -148 92 -229 104 -85 14 -609 14 -632 0z m619 -212
c18 -9 45 -34 60 -54 24 -31 28 -47 31 -112 3 -94 -20 -143 -88 -181 -43 -24
-53 -25 -215 -25 l-170 0 -3 198 -2 199 177 -4 c146 -2 184 -6 210 -21z"/>
<path d="M3662 1933 c-12 -11 -104 -245 -241 -611 -176 -474 -219 -598 -210
-613 8 -17 22 -19 104 -19 51 0 100 3 109 6 8 3 36 59 62 125 l46 119 270 -2
270 -3 45 -115 c24 -63 49 -118 56 -122 7 -5 57 -7 111 -6 76 2 101 7 109 18
7 12 -48 171 -213 610 -122 327 -229 603 -237 613 -14 14 -35 17 -138 17 -103
0 -126 -3 -143 -17z m338 -775 c0 -4 -90 -8 -200 -8 -110 0 -200 2 -200 5 0 6
191 529 197 539 5 7 203 -515 203 -536z"/>
<path d="M6117 1933 c-8 -10 -116 -285 -238 -612 -167 -448 -219 -598 -212
-610 15 -24 204 -29 224 -5 8 9 33 64 55 123 l42 106 269 3 270 2 49 -122 49
-123 110 0 110 0 3 27 c4 33 -424 1184 -450 1210 -15 15 -37 18 -141 18 -105
0 -126 -3 -140 -17z m247 -511 c53 -145 96 -265 96 -267 0 -8 -400 -5 -400 3
-1 20 195 541 201 534 3 -4 50 -125 103 -270z"/>
<path d="M6910 1935 c-17 -20 201 -1198 226 -1227 14 -15 32 -18 104 -18 73 0
90 3 104 19 10 11 64 156 121 322 l102 302 102 -305 c57 -171 110 -313 120
-322 27 -25 182 -23 205 3 26 29 243 1205 226 1226 -18 22 -202 22 -220 0 -7
-9 -46 -193 -86 -410 -40 -217 -74 -400 -76 -406 -2 -7 -33 80 -68 192 -96
310 -107 341 -122 350 -7 5 -45 9 -84 9 -55 0 -74 -4 -87 -18 -9 -10 -50 -130
-93 -267 -42 -138 -79 -256 -83 -263 -4 -7 -41 170 -81 394 -44 241 -80 412
-88 420 -20 21 -205 20 -222 -1z"/>
<path d="M8456 1934 c-14 -14 -16 -83 -16 -614 0 -531 2 -600 16 -614 13 -14
67 -16 433 -16 485 0 451 -8 451 101 0 42 -5 72 -16 87 -15 22 -16 22 -330 22
l-314 0 2 163 3 162 295 5 295 5 0 90 0 90 -295 5 -295 5 -3 158 -3 157 301 0
c189 0 309 4 321 10 16 9 19 22 19 93 0 51 -5 88 -12 95 -9 9 -117 12 -424 12
-362 0 -415 -2 -428 -16z"/>
</g>
</svg>
